<?xml version="1.0" encoding="utf-8"?>
<!-- Uploaded to: SVG Repo, www.svgrepo.com, Generator: SVG Repo Mixer Tools -->
<svg width="800px" height="800px" viewBox="0 0 1024 1024" fill="#000000" class="icon"  version="1.1" xmlns="http://www.w3.org/2000/svg"><path d="M640 384V128c0-70.688-57.312-128-128-128H128C57.312 0 0 57.312 0 128v896h1024V576l-384-192zM192 800c0 17.688-14.312 32-32 32H96c-17.688 0-32-14.312-32-32v-64c0-17.688 14.312-32 32-32h64c17.688 0 32 14.312 32 32v64z m0-192c0 17.688-14.312 32-32 32H96c-17.688 0-32-14.312-32-32v-64c0-17.688 14.312-32 32-32h64c17.688 0 32 14.312 32 32v64z m0-192c0 17.688-14.312 32-32 32H96c-17.688 0-32-14.312-32-32v-64c0-17.688 14.312-32 32-32h64c17.688 0 32 14.312 32 32v64z m0-192c0 17.688-14.312 32-32 32H96c-17.688 0-32-14.312-32-32V160c0-17.688 14.312-32 32-32h64c17.688 0 32 14.312 32 32v64z m192 576c0 17.688-14.312 32-32 32h-64c-17.688 0-32-14.312-32-32v-64c0-17.688 14.312-32 32-32h64c17.688 0 32 14.312 32 32v64z m0-192c0 17.688-14.312 32-32 32h-64c-17.688 0-32-14.312-32-32v-64c0-17.688 14.312-32 32-32h64c17.688 0 32 14.312 32 32v64z m0-192c0 17.688-14.312 32-32 32h-64c-17.688 0-32-14.312-32-32v-64c0-17.688 14.312-32 32-32h64c17.688 0 32 14.312 32 32v64z m0-192c0 17.688-14.312 32-32 32h-64c-17.688 0-32-14.312-32-32V160c0-17.688 14.312-32 32-32h64c17.688 0 32 14.312 32 32v64z m192 576c0 17.688-14.312 32-32 32h-64c-17.688 0-32-14.312-32-32v-64c0-17.688 14.312-32 32-32h64c17.688 0 32 14.312 32 32v64z m0-192c0 17.688-14.312 32-32 32h-64c-17.688 0-32-14.312-32-32v-64c0-17.688 14.312-32 32-32h64c17.688 0 32 14.312 32 32v64z m0-192c0 17.688-14.312 32-32 32h-64c-17.688 0-32-14.312-32-32v-64c0-17.688 14.312-32 32-32h64c17.688 0 32 14.312 32 32v64z m0-192c0 17.688-14.312 32-32 32h-64c-17.688 0-32-14.312-32-32V160c0-17.688 14.312-32 32-32h64c17.688 0 32 14.312 32 32v64z m320 736h-192V736c0-53 43-96 96-96s96 43 96 96v224z" /></svg>